<?xml version="1.0" standalone="no"?>
<!DOCTYPE svg PUBLIC "-//W3C//DTD SVG 20010904//EN"
 "http://www.w3.org/TR/2001/REC-SVG-20010904/DTD/svg10.dtd">
<svg version="1.0" xmlns="http://www.w3.org/2000/svg"
 width="1280.000000pt" height="1019.000000pt" viewBox="0 0 1280.000000 1019.000000"
 preserveAspectRatio="xMidYMid meet">

<g transform="translate(0.000000,1019.000000) scale(0.100000,-0.100000)"
fill="#000000" stroke="none">
<path d="M0 5095 l0 -5095 6400 0 6400 0 0 5095 0 5095 -6400 0 -6400 0 0
-5095z m8996 4544 c743 -73 1454 -379 2014 -864 116 -101 343 -333 426 -435
414 -509 674 -1082 778 -1710 35 -216 46 -352 46 -595 0 -243 -11 -379 -46
-595 -126 -763 -484 -1447 -1045 -1995 -595 -581 -1346 -931 -2184 -1016 -173
-17 -539 -15 -725 5 -630 67 -1250 306 -1750 674 -55 41 -100 77 -100 82 0 4
39 41 88 81 48 40 152 138 232 218 673 676 1050 1589 1050 2546 0 830 -279
1619 -803 2273 -114 142 -347 381 -479 491 -49 40 -88 77 -88 81 0 4 39 37 88
73 500 371 1120 613 1745 681 151 17 605 20 753 5z m2974 -5719 c0 -5 -11 -10
-25 -10 -24 0 -25 -3 -25 -60 0 -33 -4 -60 -10 -60 -6 0 -10 27 -10 60 0 53
-2 60 -20 60 -11 0 -20 5 -20 10 0 6 25 10 55 10 30 0 55 -4 55 -10z m81 -35
c11 -25 24 -45 28 -45 5 0 16 20 25 45 28 71 46 59 44 -27 -1 -42 -3 -56 -5
-33 -6 68 -13 74 -34 28 -10 -24 -24 -43 -31 -43 -7 0 -22 19 -33 43 l-19 42
-4 -52 c-5 -78 -22 -64 -22 17 0 85 20 95 51 25z"/>
</g>
</svg>
