<?xml version="1.0" standalone="no"?>
<!DOCTYPE svg PUBLIC "-//W3C//DTD SVG 20010904//EN"
 "http://www.w3.org/TR/2001/REC-SVG-20010904/DTD/svg10.dtd">
<svg version="1.0" xmlns="http://www.w3.org/2000/svg"
 width="1000.000000pt" height="986.000000pt" viewBox="0 0 1000.000000 986.000000"
 preserveAspectRatio="xMidYMid meet">

<g transform="translate(0.000000,986.000000) scale(0.100000,-0.100000)"
fill="#000000" stroke="none">
<path d="M3557 9836 c-85 -35 -122 -68 -156 -139 -26 -55 -38 -117 -110 -577
-44 -283 -133 -846 -197 -1250 -63 -404 -119 -760 -124 -790 -34 -222 -396
-2507 -416 -2630 -30 -180 -28 -235 9 -283 53 -70 24 -67 740 -67 l646 0 -7
-38 c-4 -20 -7 -53 -7 -74 0 -20 -3 -34 -6 -32 -4 2 -7 -6 -7 -19 1 -12 -3
-44 -7 -72 -4 -33 -3 -45 3 -36 7 10 11 10 17 1 4 -7 -1 -13 -13 -16 -16 -5
-22 -22 -36 -107 -28 -177 -29 -208 -9 -247 11 -22 34 -43 63 -57 l44 -23 538
0 c517 0 648 6 633 31 -4 5 1 6 9 3 40 -15 140 129 135 194 -1 15 1 34 4 42 6
15 41 214 52 300 3 25 15 97 26 160 11 63 22 135 24 159 3 25 16 108 29 185
14 78 27 166 31 196 4 30 16 106 27 168 16 91 18 115 8 127 -11 13 -10 14 4 9
21 -8 21 12 -1 24 -15 9 -14 10 4 16 10 3 26 21 35 39 25 53 67 96 117 121 43
22 61 24 301 29 179 5 296 13 394 27 77 12 144 24 149 27 5 3 24 7 42 8 44 2
205 48 205 58 0 4 4 5 10 2 17 -10 260 90 260 107 0 5 4 7 9 4 16 -10 99 43
96 62 -1 9 0 11 2 5 3 -7 9 -13 14 -13 6 0 8 4 5 9 -3 5 2 8 12 7 9 0 16 4 15
11 -1 6 5 17 15 25 15 12 16 11 3 -4 -8 -12 -9 -18 -2 -18 13 0 43 55 34 64
-4 3 -1 6 5 6 6 0 14 -4 17 -10 3 -5 2 -10 -3 -10 -6 0 -12 -7 -15 -15 -4 -8
16 2 43 21 27 20 48 41 47 47 -1 7 6 11 16 9 21 -4 23 14 2 22 -8 3 -15 11
-15 18 0 9 3 9 8 2 16 -24 40 -22 65 4 13 15 23 33 22 40 -2 7 -1 8 2 1 3 -6
19 2 39 22 18 18 31 36 28 41 -3 5 -1 7 4 6 11 -3 70 62 126 139 36 51 41 78
11 66 -8 -3 -15 -1 -15 5 0 17 24 20 36 4 9 -12 16 -6 38 32 16 27 24 51 19
59 -13 21 -12 36 5 49 16 12 16 11 2 -6 -14 -18 -13 -19 5 -13 19 7 19 6 2 -7
-11 -9 -14 -17 -8 -21 17 -10 132 243 182 403 22 70 23 75 6 87 -16 12 -16 13
0 26 15 12 16 12 10 -3 -3 -10 -2 -18 2 -18 14 0 58 196 82 364 27 192 23 436
-10 591 -30 139 -105 325 -133 325 -5 0 -7 4 -4 9 8 12 -88 137 -103 133 -7
-1 -10 2 -7 6 7 12 -28 44 -39 35 -4 -5 -5 -3 -2 3 9 15 -48 68 -64 59 -7 -5
-10 -4 -6 2 9 15 -38 44 -60 37 -14 -5 -15 -4 -4 4 11 8 10 12 -8 21 -11 7
-21 10 -21 7 0 -2 -13 7 -28 20 l-28 25 13 102 c32 264 7 515 -72 711 -175
436 -571 700 -1188 791 -278 41 -429 45 -1542 45 l-1070 0 -58 -24z m3950
-1692 c-9 -9 -27 6 -27 22 0 13 2 13 16 -1 9 -9 14 -18 11 -21z m3 -21 c0 -3
-7 -3 -15 1 -10 4 -15 -1 -16 -17 0 -12 -4 -31 -9 -42 -7 -14 -8 -8 -3 20 3
22 7 43 10 47 4 7 33 -1 33 -9z m5 -23 c-3 -5 -12 -10 -18 -10 -7 0 -6 4 3 10
19 12 23 12 15 0z m129 -28 c3 -5 -1 -9 -9 -9 -8 0 -15 4 -15 9 0 4 4 8 9 8 6
0 12 -4 15 -8z m-187 -78 c0 -30 -3 -41 -9 -31 -7 13 -1 77 7 77 2 0 3 -21 2
-46z m228 26 c3 -6 -1 -7 -9 -4 -18 7 -21 14 -7 14 6 0 13 -4 16 -10z m-231
-110 c-7 -6 -24 22 -23 40 0 9 6 5 14 -10 7 -14 11 -27 9 -30z m315 24 c4 3
13 1 21 -5 11 -6 12 -9 2 -9 -7 0 -11 -4 -8 -8 2 -4 -3 -8 -12 -8 -11 0 -17 9
-18 26 -1 14 1 19 3 12 3 -6 8 -10 12 -8z m49 -59 c-3 -3 -9 2 -12 12 -6 14
-5 15 5 6 7 -7 10 -15 7 -18z m-398 -45 c-11 -8 -29 -68 -23 -74 4 -3 1 -6 -6
-6 -8 0 -11 6 -7 16 4 9 12 37 18 62 9 36 13 42 18 26 4 -10 4 -21 0 -24z
m410 20 c0 -5 -4 -10 -10 -10 -5 0 -10 5 -10 10 0 6 5 10 10 10 6 0 10 -4 10
-10z m55 -70 c3 -6 -1 -7 -9 -4 -18 7 -21 14 -7 14 6 0 13 -4 16 -10z m8 -40
c3 -11 1 -18 -4 -14 -5 3 -9 12 -9 20 0 20 7 17 13 -6z m-503 -4 c0 -3 -4 -8
-10 -11 -5 -3 -10 -1 -10 4 0 6 5 11 10 11 6 0 10 -2 10 -4z m-10 -30 c0 -3
-4 -8 -10 -11 -5 -3 -10 -1 -10 4 0 6 5 11 10 11 6 0 10 -2 10 -4z m15 -25
c-3 -6 -13 -11 -21 -11 -8 0 -14 -5 -14 -12 0 -6 -3 -8 -7 -4 -4 4 3 16 17 26
25 19 37 19 25 1z m-1 -51 c-6 -6 -10 -3 -10 10 0 13 4 16 10 10 7 -7 7 -13 0
-20z m-59 -34 c-8 -20 -13 -48 -11 -61 3 -14 1 -23 -4 -20 -5 3 -16 -8 -25
-25 -8 -16 -18 -30 -20 -30 -8 0 18 55 32 66 7 6 10 14 6 17 -3 4 2 27 12 52
9 26 19 44 21 42 2 -2 -3 -20 -11 -41z m620 -16 c3 -5 1 -10 -4 -10 -6 0 -11
5 -11 10 0 6 2 10 4 10 3 0 8 -4 11 -10z m20 -90 c-3 -5 -14 -10 -23 -9 -14 0
-13 2 3 9 27 11 27 11 20 0z m-685 -51 c13 -9 12 -10 -2 -5 -10 3 -22 -2 -27
-12 -12 -19 -14 -12 -5 12 7 19 14 20 34 5z m686 -4 c-11 -8 -25 -15 -30 -15
-6 1 0 7 14 15 32 19 40 18 16 0z m-726 -55 c-9 -5 -9 -9 -1 -14 6 -4 11 -12
11 -19 0 -6 -7 -2 -16 9 -11 14 -14 15 -11 3 3 -9 -3 -23 -14 -32 -25 -22 -24
-14 3 34 11 21 25 36 31 32 5 -3 4 -9 -3 -13z m-59 -99 c-6 -10 -8 -20 -6 -23
2 -2 -5 -9 -15 -16 -18 -11 -18 -10 1 23 22 36 37 49 20 16z m-21 -71 c0 -5
-4 -10 -9 -10 -6 0 -13 5 -16 10 -3 6 1 10 9 10 9 0 16 -4 16 -10z m-44 -35
c-15 -23 -14 -29 7 -26 12 2 8 -6 -10 -20 -11 -10 -14 -10 -9 -1 4 6 2 12 -3
12 -6 0 -11 -7 -11 -15 0 -8 -4 -15 -10 -15 -5 0 -10 -7 -10 -15 0 -8 -4 -15
-10 -15 -5 0 -10 -6 -10 -13 0 -8 -7 -14 -15 -14 -10 0 -6 11 14 36 15 20 38
53 50 74 12 20 25 37 28 37 3 0 -2 -11 -11 -25z m30 6 c-4 -5 0 -11 6 -14 7
-2 10 -8 5 -12 -10 -12 -31 11 -23 24 4 6 9 11 12 11 3 0 3 -4 0 -9z m31 -23
c-3 -8 -6 -5 -6 6 -1 11 2 17 5 13 3 -3 4 -12 1 -19z m-63 -66 c2 -4 -5 -9
-17 -9 -17 -2 -19 0 -7 7 18 12 18 12 24 2z m-85 -55 c-2 -1 -13 -9 -24 -17
-19 -14 -19 -14 -6 3 7 9 18 17 24 17 6 0 8 -1 6 -3z m-42 -80 c-6 -12 -12
-35 -12 -51 0 -17 -6 -31 -15 -33 -12 -4 -13 -3 -1 5 7 5 10 15 6 22 -5 8 -12
7 -25 -5 -18 -16 -18 -16 -13 7 6 22 5 22 -26 -6 -20 -19 -27 -32 -20 -37 12
-7 -6 -23 -26 -24 -5 -1 -9 -7 -7 -14 1 -7 -2 -10 -7 -7 -5 4 -22 -5 -37 -19
-25 -23 -34 -29 -34 -22 0 1 39 41 86 87 48 47 84 80 80 73 -3 -6 -2 -14 3
-17 10 -7 41 36 41 56 0 8 -5 6 -11 -4 -5 -10 -15 -18 -21 -18 -6 0 -3 9 6 19
25 27 50 17 33 -12z m961 -30 c8 -10 6 -13 -7 -13 -11 0 -17 6 -14 13 3 7 6
13 8 13 1 0 7 -6 13 -13z m6 -56 c3 -4 0 -16 -7 -25 -11 -14 -12 -13 -13 9 -2
24 10 34 20 16z m-4 -75 c0 -3 -4 -8 -10 -11 -5 -3 -10 -1 -10 4 0 6 5 11 10
11 6 0 10 -2 10 -4z m-1100 -36 c0 -10 -31 -22 -38 -15 -3 3 0 5 7 5 7 0 11 7
8 14 -4 10 -1 13 9 9 7 -3 14 -9 14 -13z m-112 -25 c-12 -14 -24 -23 -26 -20
-6 6 28 45 39 45 5 0 -1 -11 -13 -25z m29 -30 c0 -8 -4 -12 -9 -9 -4 3 -8 9
-8 15 0 5 4 9 8 9 5 0 9 -7 9 -15z m-77 -11 c0 -8 -4 -12 -10 -9 -5 3 -10 2
-10 -3 0 -6 -8 -13 -17 -16 -13 -5 -11 0 6 18 29 30 31 31 31 10z m44 -14
c-10 -4 -21 -6 -24 -3 -8 7 24 22 34 16 5 -4 1 -10 -10 -13z m1180 -26 c3 -7
-3 -10 -15 -7 -13 4 -19 0 -19 -11 0 -10 -5 -14 -10 -11 -8 5 -8 11 -1 19 6 7
9 15 6 17 -2 3 5 5 15 5 11 0 22 -6 24 -12z m-1370 -58 c-3 -8 -17 -17 -31
-21 -24 -6 -25 -7 -7 -21 11 -9 13 -13 7 -9 -7 3 -22 1 -33 -5 -38 -20 -18 13
25 42 48 32 46 31 39 14z m14 -32 c-11 -11 -18 -12 -22 -5 -4 6 0 11 8 11 9 0
16 5 16 12 0 6 3 8 7 4 4 -3 0 -14 -9 -22z m1322 -8 c0 -3 -4 -8 -10 -11 -5
-3 -10 -1 -10 4 0 6 5 11 10 11 6 0 10 -2 10 -4z m-1447 -30 c-10 -13 -21 -22
-25 -20 -3 2 -8 -1 -10 -8 -3 -8 -6 -9 -11 -1 -4 6 7 20 26 32 41 26 42 26 20
-3z m2 -35 c-3 -6 -11 -11 -16 -11 -5 0 -4 6 3 14 14 16 24 13 13 -3z m-113
-17 c-29 -14 -51 -28 -48 -32 2 -4 -2 -13 -10 -20 -8 -7 -14 -9 -14 -5 0 4 -5
1 -11 -7 -8 -12 -10 -11 -7 5 2 11 7 18 12 17 5 -2 13 3 18 12 10 18 75 55 98
55 8 1 -9 -11 -38 -25z m-114 -62 c2 -7 -1 -12 -7 -12 -6 0 -11 5 -11 10 0 6
-13 4 -30 -5 -38 -19 -40 -11 -2 9 30 17 44 16 50 -2z m-100 -29 c-9 -10 -13
-25 -11 -33 3 -9 -1 -7 -11 5 -20 25 -20 39 -1 32 8 -4 17 -2 20 3 4 6 9 10
12 10 3 0 -1 -8 -9 -17z m1712 11 c0 -8 -19 -13 -24 -6 -3 5 1 9 9 9 8 0 15
-2 15 -3z m-1775 -27 c-11 -6 -23 -12 -27 -13 -5 -1 -9 -2 -10 -4 -2 -1 -11
-3 -21 -5 -27 -5 -11 8 26 22 42 15 57 15 32 0z m-90 -27 c-3 -5 -12 -10 -18
-10 -7 0 -6 4 3 10 19 12 23 12 15 0z m100 0 c-3 -5 -16 -10 -28 -9 -20 1 -20
2 3 9 14 4 26 8 28 9 2 1 0 -3 -3 -9z m-178 -17 c-4 -3 -3 -11 3 -17 5 -7 5
-17 -1 -26 -9 -13 -10 -13 -7 0 8 26 -14 38 -47 28 -16 -6 -38 -10 -47 -10
-10 1 -20 -3 -23 -8 -3 -5 -12 -7 -20 -3 -9 3 -21 1 -28 -5 -7 -6 -20 -6 -32
-1 l-20 9 20 -2 c11 0 27 2 35 5 19 7 140 35 159 36 8 1 11 -2 8 -6z m-312
-53 c-3 -5 -14 -10 -23 -10 -15 0 -15 2 -2 10 20 13 33 13 25 0z m45 0 c0 -5
-8 -10 -17 -10 -15 0 -16 2 -3 10 19 12 20 12 20 0z m35 0 c3 -6 -1 -7 -9 -4
-18 7 -21 14 -7 14 6 0 13 -4 16 -10z m-155 -11 c-19 -5 -53 -9 -75 -9 -63 -1
-100 -11 -84 -21 11 -7 10 -9 -3 -9 -10 0 -18 5 -18 11 0 5 -4 7 -10 4 -5 -3
-10 -2 -10 4 0 5 8 10 18 10 9 0 49 5 87 9 39 5 84 9 100 10 29 0 29 0 -5 -9z
m2255 2 c3 -5 2 -12 -3 -15 -5 -3 -9 1 -9 9 0 17 3 19 12 6z m-2468 -18 c-4
-3 -179 -7 -389 -7 -211 -1 -387 -4 -393 -7 -5 -4 -19 -2 -30 2 -18 9 -18 9 3
5 12 -2 22 0 22 5 0 5 166 9 397 9 218 0 393 -3 390 -7z m2493 -24 c-13 -24
-19 -24 -15 -1 2 9 4 21 4 25 1 5 6 5 11 2 7 -4 7 -13 0 -26z m-3249 -16 c13
-16 12 -17 -3 -4 -10 7 -18 15 -18 17 0 8 8 3 21 -13z m39 8 c0 -6 -4 -13 -10
-16 -5 -3 -10 1 -10 9 0 9 5 16 10 16 6 0 10 -4 10 -9z m40 1 c0 -5 7 -9 15
-9 8 0 15 4 15 8 0 4 9 7 20 6 11 -1 16 -5 12 -9 -8 -8 -42 -13 -69 -9 -15 1
-18 21 -3 21 6 0 10 -4 10 -8z m220 -9 c0 -16 -6 -16 -31 -3 -10 6 -19 7 -19
3 0 -10 -58 -9 -68 2 -4 5 -1 5 6 1 6 -4 12 -3 12 2 0 4 23 8 50 8 33 -1 50
-5 50 -13z m38 9 c15 12 16 11 3 -4 -7 -10 -17 -18 -22 -18 -5 0 -9 8 -8 18 0
11 2 12 6 4 4 -10 8 -10 21 0z m45 -6 c4 -10 1 -13 -9 -9 -7 3 -14 9 -14 14 0
14 17 10 23 -5z m48 2 c0 -10 2 -10 6 0 6 16 35 16 51 0 10 -10 15 -10 22 2 8
13 10 12 10 -2 0 -11 -8 -18 -20 -18 -11 0 -20 4 -20 9 0 10 -26 9 -36 -2 -13
-12 -34 -7 -34 8 0 18 20 20 21 3z m127 1 c-2 -6 -8 -10 -13 -10 -5 0 -11 4
-13 10 -2 6 4 11 13 11 9 0 15 -5 13 -11z m42 -1 c0 -9 3 -9 12 0 7 7 16 12
22 12 5 0 1 -6 -10 -14 -13 -10 -23 -11 -31 -4 -9 7 -13 7 -13 -1 0 -6 -4 -11
-10 -11 -5 0 -7 7 -4 15 7 18 34 20 34 3z m170 2 c0 -5 -5 -10 -11 -10 -5 0
-7 5 -4 10 3 6 8 10 11 10 2 0 4 -4 4 -10z m2442 -12 c-7 -7 -12 -8 -12 -2 0
14 12 26 19 19 2 -3 -1 -11 -7 -17z m-3353 -14 c-9 -11 -9 -18 1 -29 7 -9 10
-18 6 -22 -3 -3 -6 -1 -6 5 0 7 -6 11 -12 10 -7 -2 -12 5 -12 15 2 21 -9 22
-27 1 -10 -13 -10 -17 2 -25 11 -8 10 -9 -5 -7 -10 2 -25 -7 -35 -22 -15 -23
-15 -24 2 -17 11 4 16 3 12 -3 -3 -6 -11 -10 -17 -10 -6 0 -17 -8 -24 -17 -13
-17 -14 -17 -7 2 20 59 103 152 124 139 6 -3 5 -11 -2 -20z m847 18 c-10 -10
-45 -12 -50 -3 -3 4 8 8 25 9 17 0 28 -2 25 -6z m120 1 c-10 -10 -46 -11 -40
-1 3 4 15 8 26 8 12 0 18 -3 14 -7z m-1006 -93 c0 -5 -2 -10 -4 -10 -3 0 -8 5
-11 10 -3 6 -1 10 4 10 6 0 11 -4 11 -10z m3324 -16 c3 -8 2 -12 -4 -9 -6 3
-10 10 -10 16 0 14 7 11 14 -7z m-3399 -64 c-3 -5 -11 -10 -16 -10 -6 0 -7 5
-4 10 3 6 11 10 16 10 6 0 7 -4 4 -10z m-6 -63 c1 -5 -4 -5 -9 -2 -7 4 -9 -3
-6 -22 2 -15 5 -28 6 -28 8 0 6 -36 -2 -42 -6 -3 -8 -1 -4 5 3 6 2 13 -3 16
-5 3 -11 -8 -13 -25 -3 -21 -1 -28 8 -25 7 3 11 -4 10 -20 -1 -23 -2 -23 -15
-7 -12 17 -13 16 -8 -5 3 -12 1 -20 -3 -17 -5 3 -11 -5 -13 -17 -2 -13 -3 -5
0 17 2 22 11 80 20 130 11 65 18 84 24 70 4 -11 8 -24 8 -28z m3341 -42 c-7
-9 -15 -13 -17 -11 -7 7 7 26 19 26 6 0 6 -6 -2 -15z m-3413 -297 c-3 -8 -6
-5 -6 6 -1 11 2 17 5 13 3 -3 4 -12 1 -19z m3083 -9 c-7 -11 -14 -18 -17 -15
-3 3 0 12 7 21 18 21 23 19 10 -6z m-3074 -21 c4 -7 3 -8 -4 -4 -8 5 -12 -1
-12 -18 0 -14 5 -28 10 -31 6 -3 10 -12 9 -18 0 -9 -2 -9 -6 1 -2 6 -9 12 -14
12 -14 0 -11 -22 7 -42 16 -16 15 -19 -4 -35 -21 -19 -42 -71 -24 -59 5 3 9
-2 8 -12 0 -9 5 -16 12 -14 8 1 11 -2 7 -8 -5 -8 -11 -8 -19 -1 -7 6 -16 8
-19 4 -8 -8 -7 42 2 77 3 14 12 25 19 25 6 0 12 5 11 10 -1 6 -5 9 -11 7 -6
-2 -7 16 -3 50 9 68 16 81 31 56z m3014 -14 c0 -8 -19 -13 -24 -6 -3 5 1 9 9
9 8 0 15 -2 15 -3z m-169 -157 c-10 -9 -11 -8 -5 6 3 10 9 15 12 12 3 -3 0
-11 -7 -18z m-173 -57 c-7 -10 -14 -17 -17 -15 -4 4 18 35 25 35 2 0 -1 -9 -8
-20z m-84 -16 c3 -8 2 -12 -4 -9 -6 3 -10 10 -10 16 0 14 7 11 14 -7z m-2604
-23 c0 -13 -29 -8 -34 5 -3 7 2 10 15 7 10 -3 19 -9 19 -12z m2517 -24 c0 -7
-9 -14 -19 -14 -10 -1 -18 3 -18 8 0 6 4 8 9 4 5 -3 12 -1 16 5 8 13 12 13 12
-3z m-2560 -19 c-3 -8 -6 -5 -6 6 -1 11 2 17 5 13 3 -3 4 -12 1 -19z m2490 -1
c4 -6 1 -7 -7 -2 -8 5 -18 2 -25 -9 -12 -15 -13 -15 -19 0 -3 9 -4 19 -1 24 6
10 43 1 52 -13z m-2498 -59 c-6 -23 -8 -47 -5 -55 3 -7 2 -13 -3 -13 -16 0
-23 -120 -9 -138 12 -15 11 -16 -4 -3 -16 12 -18 11 -18 -9 0 -13 -3 -20 -6
-17 -9 8 37 277 47 277 4 0 3 -19 -2 -42z m2069 5 c-13 -16 -15 -16 -21 1 -4
10 0 14 13 13 14 -1 16 -4 8 -14z m37 7 c3 -5 1 -10 -4 -10 -6 0 -11 5 -11 10
0 6 2 10 4 10 3 0 8 -4 11 -10z m88 -5 c-3 -9 -8 -14 -10 -11 -3 3 -2 9 2 15
9 16 15 13 8 -4z m-33 -15 c0 -5 -8 -10 -17 -10 -15 0 -16 2 -3 10 19 12 20
12 20 0z m-125 -10 c3 -5 2 -10 -4 -10 -5 0 -13 5 -16 10 -3 6 -2 10 4 10 5 0
13 -4 16 -10z m-532 -37 c-7 -2 -19 -2 -25 0 -7 3 -2 5 12 5 14 0 19 -2 13 -5z
m-38 -12 c3 -5 1 -12 -5 -16 -5 -3 -10 -1 -10 5 0 7 -7 10 -15 6 -8 -3 -15 -1
-15 4 0 13 37 13 45 1z m-85 -85 c0 -3 -4 -8 -10 -11 -5 -3 -10 -1 -10 4 0 6
5 11 10 11 6 0 10 -2 10 -4z m-4 -63 c-7 -7 -26 7 -26 19 0 6 6 6 15 -2 9 -7
13 -15 11 -17z m-1422 -78 c3 -8 1 -15 -4 -15 -6 0 -10 7 -10 15 0 8 2 15 4
15 2 0 6 -7 10 -15z m46 -11 c0 -17 -22 -14 -28 4 -2 7 3 12 12 12 9 0 16 -7
16 -16z m-66 -99 c-7 -44 -16 -91 -19 -104 -5 -21 -4 -23 9 -12 11 10 16 10
16 2 0 -6 -7 -14 -16 -18 -9 -3 -11 -9 -6 -12 5 -3 1 -14 -8 -24 -20 -21 -21
-32 5 128 17 106 23 130 29 124 2 -2 -2 -40 -10 -84z m1406 -8 c0 -8 -7 -14
-15 -14 -11 0 -12 4 -4 14 6 7 13 13 15 13 2 0 4 -6 4 -13z m-26 -125 c3 -5
-1 -9 -9 -9 -8 0 -12 4 -9 9 3 4 7 8 9 8 2 0 6 -4 9 -8z m-9 -53 c-3 -12 -7
-24 -10 -27 -3 -3 -3 5 -1 19 6 30 5 29 10 29 3 0 3 -10 1 -21z m-1381 -4 c-4
-8 -11 -15 -18 -15 -6 0 -4 -5 4 -10 11 -7 11 -10 2 -10 -7 0 -12 -6 -11 -12
1 -7 -3 -24 -10 -38 -11 -23 -11 -23 -6 10 3 19 6 42 7 50 1 8 8 20 17 27 21
16 21 16 15 -2z m1376 -65 c0 -5 -2 -10 -4 -10 -3 0 -8 5 -11 10 -3 6 -1 10 4
10 6 0 11 -4 11 -10z m-1386 -47 c4 -10 4 -14 0 -11 -18 19 -38 -30 -48 -114
-2 -21 -7 -42 -11 -48 -4 -6 -1 -18 7 -27 9 -12 9 -15 1 -9 -16 9 -17 -6 -1
-22 9 -9 8 -12 -5 -12 -21 0 -21 15 -1 140 10 55 21 97 26 94 4 -3 11 2 14 10
8 20 10 20 18 -1z m1333 -186 c-6 -15 -16 -27 -20 -27 -5 0 0 13 9 30 22 36
29 34 11 -3z m-1410 -119 c-3 -7 -5 -2 -5 12 0 14 2 19 5 13 2 -7 2 -19 0 -25z
m1408 21 c11 -17 -1 -21 -15 -4 -8 9 -8 15 -2 15 6 0 14 -5 17 -11z m-1381
-14 c3 -8 1 -15 -4 -15 -6 0 -10 7 -10 15 0 8 2 15 4 15 2 0 6 -7 10 -15z
m-35 -77 c-6 -10 -5 -19 2 -24 8 -4 8 -9 0 -17 -18 -18 -23 -1 -15 50 5 36 9
43 14 28 4 -11 4 -28 -1 -37z m41 42 c0 -5 -2 -10 -4 -10 -3 0 -8 5 -11 10 -3
6 -1 10 4 10 6 0 11 -4 11 -10z m1370 -21 c0 -5 -4 -9 -8 -9 -5 0 -9 7 -9 15
0 8 4 12 9 9 4 -3 8 -9 8 -15z m-1390 -84 c-14 -17 -30 -20 -30 -4 0 5 5 7 10
4 6 -3 13 1 16 10 4 9 9 14 12 11 3 -3 -1 -12 -8 -21z m20 -35 c0 -5 -5 -10
-11 -10 -5 0 -7 5 -4 10 3 6 8 10 11 10 2 0 4 -4 4 -10z m1291 -113 c-10 -9
-11 -8 -5 6 3 10 9 15 12 12 3 -3 0 -11 -7 -18z m36 -2 c0 -8 -4 -12 -9 -9 -5
3 -6 10 -3 15 9 13 12 11 12 -6z m-16 -118 c-6 -8 -8 -17 -4 -21 4 -4 0 -4 -9
-1 -14 5 -15 10 -5 21 16 17 33 18 18 1z m-1400 -110 c-10 -9 -11 -8 -5 6 3
10 9 15 12 12 3 -3 0 -11 -7 -18z m-11 -32 c14 -19 14 -19 -2 -6 -10 7 -18 18
-18 24 0 6 1 8 3 6 1 -2 9 -13 17 -24z m26 -234 c-4 -6 -13 -11 -19 -10 -9 0
-9 2 1 6 6 2 12 9 12 14 0 6 -5 7 -12 3 -7 -5 -8 -3 -3 5 5 9 11 9 17 3 6 -6
7 -15 4 -21z m1249 -9 c-3 -3 -11 0 -18 7 -9 10 -8 11 6 5 10 -3 15 -9 12 -12z
m-1052 -19 c-7 -2 -19 -2 -25 0 -7 3 -2 5 12 5 14 0 19 -2 13 -5z m175 0 c-16
-2 -40 -2 -55 0 -16 2 -3 4 27 4 30 0 43 -2 28 -4z m75 0 c-7 -2 -21 -2 -30 0
-10 3 -4 5 12 5 17 0 24 -2 18 -5z m120 0 c-13 -2 -35 -2 -50 0 -16 2 -5 4 22
4 28 0 40 -2 28 -4z m110 0 c-13 -2 -33 -2 -45 0 -13 2 -3 4 22 4 25 0 35 -2
23 -4z m70 0 c-7 -2 -21 -2 -30 0 -10 3 -4 5 12 5 17 0 24 -2 18 -5z m54 1
c-3 -3 -12 -4 -19 -1 -8 3 -5 6 6 6 11 1 17 -2 13 -5z m101 -1 c-10 -2 -28 -2
-40 0 -13 2 -5 4 17 4 22 1 32 -1 23 -4z m109 1 c-3 -3 -12 -4 -19 -1 -8 3 -5
6 6 6 11 1 17 -2 13 -5z m70 0 c-3 -3 -12 -4 -19 -1 -8 3 -5 6 6 6 11 1 17 -2
13 -5z"/>
<path d="M369 2635 c-14 -8 -31 -27 -37 -42 -6 -15 -36 -188 -66 -383 -155
-994 -247 -1570 -257 -1613 -10 -45 -10 -50 12 -73 22 -24 23 -24 230 -24 114
0 219 4 233 10 46 17 55 48 102 346 47 300 55 326 105 351 16 9 82 13 209 13
275 0 420 27 571 106 192 101 315 278 379 544 81 342 -7 597 -245 705 -149 69
-147 69 -705 72 -427 2 -509 1 -531 -12z m837 -450 c66 -41 94 -96 94 -185 0
-110 -32 -200 -91 -259 -68 -69 -152 -91 -357 -94 l-132 -2 0 30 c0 61 77 515
90 530 12 14 36 16 180 13 165 -3 167 -3 216 -33z"/>
<path d="M5918 2634 c-33 -17 -48 -43 -48 -80 0 -25 1 -26 13 -10 12 16 13 16
13 -3 0 -11 -3 -19 -6 -19 -24 2 -31 -5 -29 -29 1 -16 -1 -35 -4 -43 -12 -33
-28 -153 -22 -173 5 -18 4 -19 -5 -7 -9 12 -11 8 -7 -17 2 -18 0 -33 -5 -33
-5 0 -8 -12 -7 -27 1 -16 -12 -103 -28 -195 -17 -92 -27 -166 -24 -163 4 2 7
-5 7 -15 0 -10 -3 -17 -6 -15 -6 4 -28 -120 -90 -515 -16 -107 -40 -251 -52
-320 -12 -69 -21 -149 -20 -178 0 -29 -3 -50 -7 -47 -5 2 -8 -8 -9 -23 0 -15
-5 -47 -11 -72 -6 -25 -11 -62 -11 -82 0 -64 14 -68 255 -68 210 0 252 6 263
38 2 6 -4 12 -13 12 -9 0 -14 -4 -10 -9 3 -5 2 -12 -3 -15 -4 -2 -9 4 -9 15
-1 12 5 19 17 19 12 0 20 9 24 27 6 33 36 211 67 408 12 77 29 154 37 170 9
17 15 33 15 36 -3 9 4 9 242 18 238 10 375 26 388 48 4 7 13 13 20 13 8 0 6
-4 -3 -11 -13 -10 -13 -10 0 -7 57 17 120 43 120 51 0 4 4 6 9 3 9 -6 109 53
156 91 17 14 24 27 19 35 -4 7 -3 10 1 5 13 -11 44 23 38 41 -4 13 -3 14 5 3
13 -18 81 72 123 165 39 86 81 223 75 247 -2 9 0 17 5 17 5 0 8 17 7 38 -1 20
3 46 7 56 7 15 5 18 -6 11 -11 -6 -12 -5 -1 6 7 8 12 42 12 90 0 85 -6 112
-24 102 -6 -4 -6 0 2 9 15 18 9 49 -20 116 -12 26 -24 40 -30 36 -7 -5 -9 -1
-5 9 8 20 -50 90 -66 80 -5 -3 -7 -1 -4 5 9 13 -42 56 -102 86 -52 27 -106 44
-81 27 13 -9 13 -11 -2 -11 -10 0 -18 7 -18 15 0 20 -50 32 -61 14 -7 -12 -9
-11 -9 2 0 30 -149 39 -616 39 -368 -1 -443 -3 -466 -16z m918 -25 c3 -6 -5
-3 -20 6 -14 10 -26 19 -26 22 0 7 39 -17 46 -28z m-870 9 c4 -6 3 -8 -4 -4
-5 3 -13 0 -15 -6 -3 -8 -6 -6 -6 5 -1 19 14 23 25 5z m151 5 c-20 -2 -52 -2
-70 0 -17 2 0 4 38 4 39 0 53 -2 32 -4z m70 1 c-3 -3 -12 -4 -19 -1 -8 3 -5 6
6 6 11 1 17 -2 13 -5z m196 -1 c-7 -2 -21 -2 -30 0 -10 3 -4 5 12 5 17 0 24
-2 18 -5z m170 0 c-7 -2 -21 -2 -30 0 -10 3 -4 5 12 5 17 0 24 -2 18 -5z m44
1 c-3 -3 -12 -4 -19 -1 -8 3 -5 6 6 6 11 1 17 -2 13 -5z m110 0 c-3 -3 -12 -4
-19 -1 -8 3 -5 6 6 6 11 1 17 -2 13 -5z m56 -1 c-7 -2 -19 -2 -25 0 -7 3 -2 5
12 5 14 0 19 -2 13 -5z m362 -63 c-11 -5 -27 -9 -35 -9 -13 -1 -13 0 0 9 8 5
24 9 35 9 l20 0 -20 -9z m-1227 -63 c8 -10 6 -13 -7 -13 -11 0 -17 6 -14 13 3
7 6 13 8 13 1 0 7 -6 13 -13z m1356 -9 c-4 -5 -9 -7 -12 -4 -3 3 -11 1 -19 -6
-11 -8 -17 -8 -26 2 -7 7 -7 10 -2 7 6 -3 17 -2 23 2 18 11 42 10 36 -1z m31
-78 c-3 -5 -12 -10 -18 -10 -7 0 -6 4 3 10 19 12 23 12 15 0z m-1404 -54 c11
6 11 4 0 -10 -11 -13 -16 -14 -22 -4 -5 7 -9 18 -9 23 0 6 4 4 9 -4 5 -8 14
-10 22 -5z m1485 -8 c4 -7 4 -10 -1 -6 -4 4 -16 -3 -27 -15 -11 -12 -16 -15
-12 -7 8 18 25 40 30 40 1 0 6 -6 10 -12z m-889 -84 c-3 -3 -12 -4 -19 -1 -8
3 -5 6 6 6 11 1 17 -2 13 -5z m68 -4 c-3 -5 -10 -10 -16 -10 -5 0 -9 5 -9 10
0 6 7 10 16 10 8 0 12 -4 9 -10z m113 3 c-10 -2 -18 -9 -18 -14 0 -5 -5 -9
-11 -9 -8 0 -8 5 1 15 7 8 20 14 29 14 13 -1 13 -2 -1 -6z m29 -7 c-3 -8 -1
-17 6 -19 7 -3 2 -5 -9 -4 -18 1 -20 4 -10 19 13 22 20 24 13 4z m33 4 c0 -5
-5 -10 -11 -10 -5 0 -7 5 -4 10 3 6 8 10 11 10 2 0 4 -4 4 -10z m-337 -17 c-3
-7 -6 -13 -8 -13 -2 0 -5 6 -8 13 -3 8 1 14 8 14 7 0 11 -6 8 -14z m327 -37
c25 -10 53 -18 62 -19 9 -1 16 -4 15 -7 -2 -8 49 -81 54 -76 13 13 9 -170 -5
-218 -9 -30 -13 -63 -10 -73 4 -14 4 -15 -4 -4 -8 11 -11 9 -18 -10 -4 -13 -7
-28 -5 -34 1 -5 0 -7 -3 -4 -4 3 -23 -9 -42 -27 -20 -18 -49 -38 -65 -44 -16
-7 -29 -15 -29 -19 0 -4 -8 -7 -17 -8 -10 0 -49 -5 -88 -12 -80 -12 -291 -15
-299 -3 -2 4 2 43 10 87 9 43 13 87 11 97 -3 10 -2 16 3 13 4 -3 11 21 14 53
4 31 10 77 14 102 3 25 6 59 7 77 0 17 2 29 5 27 9 -10 28 101 19 112 -7 9 34
11 158 10 137 -1 176 -5 213 -20z m-870 -6 c0 -5 -5 -10 -11 -10 -5 0 -7 5 -4
10 3 6 8 10 11 10 2 0 4 -4 4 -10z m500 -4 c0 -2 -7 -7 -16 -10 -8 -3 -12 -2
-9 4 6 10 25 14 25 6z m488 -15 c-12 -19 -28 -19 -28 0 0 6 4 8 9 4 5 -3 12
-1 16 5 3 5 8 10 11 10 2 0 -1 -9 -8 -19z m17 -20 c3 -5 2 -12 -3 -15 -5 -3
-9 1 -9 9 0 17 3 19 12 6z m-1010 -61 c-3 -5 -11 -10 -16 -10 -6 0 -7 5 -4 10
3 6 11 10 16 10 6 0 7 -4 4 -10z m1570 -29 c3 -5 2 -12 -3 -15 -5 -3 -9 1 -9
9 0 17 3 19 12 6z m-1575 -86 c0 -5 -4 -4 -9 4 -5 8 -14 10 -22 5 -11 -6 -11
-4 0 10 11 13 16 14 22 4 5 -7 9 -17 9 -23z m421 -12 c-12 -20 -14 -14 -5 12
4 9 9 14 11 11 3 -2 0 -13 -6 -23z m36 5 c-3 -8 -6 -5 -6 6 -1 11 2 17 5 13 3
-3 4 -12 1 -19z m-490 -40 c-3 -8 -6 -5 -6 6 -1 11 2 17 5 13 3 -3 4 -12 1
-19z m487 4 c3 -5 -1 -9 -9 -9 -8 0 -12 4 -9 9 3 4 7 8 9 8 2 0 6 -4 9 -8z
m-24 -37 c-7 -9 -15 -13 -17 -11 -7 7 7 26 19 26 6 0 6 -6 -2 -15z m1120 -49
c0 -2 -8 -10 -17 -17 -16 -13 -17 -12 -4 4 13 16 21 21 21 13z m-1125 -16 c3
-5 1 -10 -4 -10 -6 0 -11 5 -11 10 0 6 2 10 4 10 3 0 8 -4 11 -10z m5 -40 c0
-11 -2 -20 -4 -20 -2 0 -6 9 -9 20 -3 11 -1 20 4 20 5 0 9 -9 9 -20z m1097
-22 c-3 -8 -6 -5 -6 6 -1 11 2 17 5 13 3 -3 4 -12 1 -19z m-1590 -18 c-1 -11
-5 -20 -9 -20 -10 0 -10 4 -2 24 8 22 13 20 11 -4z m1577 4 c5 -14 4 -15 -9
-4 -17 14 -19 20 -6 20 5 0 12 -7 15 -16z m-523 -28 c-7 -8 -20 -12 -28 -9
-12 5 -14 3 -8 -7 5 -9 4 -11 -4 -6 -16 10 -3 29 15 22 8 -3 17 1 21 10 3 8 8
13 11 10 3 -3 -1 -12 -7 -20z m-1068 -51 c-3 -9 -8 -14 -10 -11 -3 3 -2 9 2
15 9 16 15 13 8 -4z m977 -26 c0 -6 -4 -7 -10 -4 -5 3 -10 11 -10 16 0 6 5 7
10 4 6 -3 10 -11 10 -16z m42 14 c-6 -2 -10 -9 -6 -14 3 -5 0 -9 -5 -9 -12 0
-14 13 -4 23 3 4 11 7 17 6 6 0 5 -3 -2 -6z m528 -47 c0 -2 -8 -10 -17 -17
-16 -13 -17 -12 -4 4 13 16 21 21 21 13z m-943 -12 c-3 -3 -12 -4 -19 -1 -8 3
-5 6 6 6 11 1 17 -2 13 -5z m81 -1 c-10 -2 -26 -2 -35 0 -10 3 -2 5 17 5 19 0
27 -2 18 -5z m-168 -7 c0 -2 -7 -6 -15 -10 -8 -3 -15 -1 -15 4 0 6 7 10 15 10
8 0 15 -2 15 -4z m-507 -69 c-9 -19 -10 -19 -16 -3 -4 10 -3 15 3 11 6 -3 10
1 10 9 0 8 -4 18 -10 21 -5 3 -10 11 -10 18 0 6 7 1 16 -12 12 -16 14 -28 7
-44z m817 59 c0 -11 -19 -15 -25 -6 -3 5 1 10 9 10 9 0 16 -2 16 -4z m630 -41
c14 -19 14 -19 -2 -6 -10 7 -18 18 -18 24 0 6 1 8 3 6 1 -2 9 -13 17 -24z
m-80 -115 c12 -8 10 -9 -7 -7 -12 2 -26 6 -29 10 -11 11 19 8 36 -3z m-10 -35
c-7 -8 -17 -15 -23 -15 -6 0 -2 7 9 15 25 19 30 19 14 0z m-92 -34 c11 -7 11
-9 -2 -14 -8 -3 -17 -1 -20 6 -4 7 -4 1 -2 -12 4 -17 2 -21 -6 -13 -11 11 -4
42 9 42 4 0 14 -4 21 -9z m-124 -59 c3 -5 -1 -9 -9 -9 -8 0 -15 4 -15 9 0 4 4
8 9 8 6 0 12 -4 15 -8z m-99 -22 c3 -6 -1 -7 -9 -4 -18 7 -21 14 -7 14 6 0 13
-4 16 -10z m-588 -55 c0 -8 -4 -12 -9 -9 -5 3 -6 10 -3 15 9 13 12 11 12 -6z
m-532 -45 c-3 -5 -12 -10 -18 -10 -7 0 -6 4 3 10 19 12 23 12 15 0z m442 -112
c-3 -8 -6 -5 -6 6 -1 11 2 17 5 13 3 -3 4 -12 1 -19z m-4 -52 c4 -10 1 -13 -8
-9 -8 3 -12 9 -9 14 7 12 11 11 17 -5z m7 -81 c0 -8 -4 -15 -10 -15 -5 0 -7 7
-4 15 4 8 8 15 10 15 2 0 4 -7 4 -15z m-10 -90 c0 -8 -2 -15 -4 -15 -2 0 -6 7
-10 15 -3 8 -1 15 4 15 6 0 10 -7 10 -15z m-495 -45 c-3 -5 -11 -10 -16 -10
-6 0 -7 5 -4 10 3 6 11 10 16 10 6 0 7 -4 4 -10z m-15 -100 c0 -5 -4 -10 -10
-10 -5 0 -10 5 -10 10 0 6 5 10 10 10 6 0 10 -4 10 -10z m10 -182 c0 -6 -6 -5
-15 2 -8 7 -15 14 -15 16 0 2 7 1 15 -2 8 -4 15 -11 15 -16z"/>
<path d="M9538 2633 c-9 -10 -25 -72 -36 -143 -54 -320 -74 -459 -76 -506 0
-29 -3 -50 -6 -49 -3 2 -11 -31 -18 -73 -7 -42 -18 -114 -26 -160 -12 -76 -12
-83 3 -78 14 5 14 5 0 -6 -17 -14 -65 -268 -55 -293 3 -8 1 -15 -4 -15 -5 0
-8 -18 -6 -40 2 -21 0 -41 -3 -42 -6 -3 -40 -194 -56 -313 -3 -22 -17 -104
-31 -183 -14 -79 -24 -158 -22 -175 5 -50 30 -57 216 -57 221 0 252 14 267
125 11 78 13 92 35 222 12 67 20 128 19 135 -1 7 0 20 3 28 6 15 38 210 38
230 0 6 -5 8 -12 4 -7 -4 -8 -3 -4 5 4 6 12 9 17 6 5 -4 10 9 10 27 1 18 3 49
5 67 4 33 3 34 -12 15 -15 -18 -15 -18 -5 3 6 12 11 32 12 45 1 23 1 23 10 -2
7 -21 8 -18 6 17 -1 23 0 40 4 38 9 -6 43 211 35 230 -3 9 -2 13 4 10 6 -4 10
6 10 22 0 15 11 93 24 173 36 207 76 457 76 470 0 8 -6 8 -20 0 -11 -6 -20
-18 -20 -28 0 -15 -2 -15 -10 -2 -5 8 -10 22 -10 30 0 13 1 13 10 0 9 -13 14
-7 11 13 0 4 2 6 6 6 34 -6 39 3 51 94 16 120 15 131 -6 150 -16 15 -47 17
-219 17 -178 0 -202 -2 -215 -17z m22 -8 c0 -8 -4 -15 -10 -15 -5 0 -7 7 -4
15 4 8 8 15 10 15 2 0 4 -7 4 -15z m395 4 c-4 -5 -1 -9 5 -9 6 0 8 -4 5 -10
-3 -5 -11 -10 -16 -10 -6 0 -8 4 -5 9 11 17 -19 18 -32 2 -11 -14 -12 -13 -3
4 5 11 19 21 30 22 12 1 19 -2 16 -8z m-252 -6 c-7 -2 -21 -2 -30 0 -10 3 -4
5 12 5 17 0 24 -2 18 -5z m60 0 c-7 -2 -21 -2 -30 0 -10 3 -4 5 12 5 17 0 24
-2 18 -5z m105 0 c-10 -2 -26 -2 -35 0 -10 3 -2 5 17 5 19 0 27 -2 18 -5z
m-331 -68 c0 -8 -4 -15 -9 -15 -10 0 -11 14 -1 23 9 10 10 9 10 -8z m26 -25
c-3 -11 -7 -20 -9 -20 -2 0 -4 9 -4 20 0 11 4 20 9 20 5 0 7 -9 4 -20z m-26
-22 c-1 -14 3 -22 11 -20 6 1 12 -2 12 -8 0 -14 -16 -12 -27 3 -12 15 -13 47
-1 47 4 0 7 -10 5 -22z m380 -223 c0 -8 -4 -12 -9 -9 -4 3 -8 9 -8 15 0 5 4 9
8 9 5 0 9 -7 9 -15z m-421 -87 c4 -7 4 -10 -1 -6 -4 4 -15 2 -24 -5 -14 -11
-14 -10 -2 6 16 20 18 21 27 5z m414 -35 c-11 -17 -11 -17 -6 0 3 10 6 24 7
30 0 9 2 9 5 0 3 -7 0 -20 -6 -30z m-420 -61 c0 -15 -2 -15 -10 -2 -13 20 -13
33 0 25 6 -3 10 -14 10 -23z m376 -223 c-2 -18 -9 -36 -15 -40 -6 -5 -9 -6 -6
-3 2 4 0 16 -6 27 -8 14 -8 18 1 12 7 -4 13 1 17 14 8 32 15 25 9 -10z m-441
-59 c3 -5 1 -10 -4 -10 -6 0 -11 5 -11 10 0 6 2 10 4 10 3 0 8 -4 11 -10z
m-10 -37 c-4 -10 -8 -28 -10 -41 -1 -12 -5 -25 -8 -29 -8 -7 -1 46 8 70 4 9 9
17 12 17 3 0 2 -8 -2 -17z m-21 -123 c-5 -5 -10 3 -11 18 -1 22 0 24 9 8 6
-10 6 -22 2 -26z m396 -140 c0 -5 -5 -10 -11 -10 -5 0 -7 5 -4 10 3 6 8 10 11
10 2 0 4 -4 4 -10z m-435 -180 c3 -6 -1 -7 -9 -4 -18 7 -21 14 -7 14 6 0 13
-4 16 -10z m-5 -81 c0 -21 -15 -25 -26 -7 -5 7 -3 8 6 3 10 -6 12 -3 8 13 -4
12 -2 20 3 16 5 -3 9 -14 9 -25z m386 -170 c3 -6 2 -14 -3 -18 -6 -3 -12 -13
-15 -20 -3 -12 -6 -12 -11 2 -3 9 -2 17 3 17 6 0 10 5 10 11 0 5 -5 7 -12 3
-7 -4 -8 -3 -4 4 9 15 23 15 32 1z m-29 -91 c-3 -8 -6 -5 -6 6 -1 11 2 17 5
13 3 -3 4 -12 1 -19z m-422 -28 c-3 -5 0 -10 7 -11 10 0 10 -2 1 -6 -7 -2 -13
-18 -13 -33 0 -16 -4 -31 -9 -34 -4 -3 -6 9 -4 27 3 17 5 40 5 50 -1 9 4 17 9
17 6 0 7 -4 4 -10z m445 1 c0 -5 -7 -12 -16 -15 -14 -5 -15 -4 -4 9 14 17 20
19 20 6z m-10 -53 c0 -19 -2 -20 -10 -8 -13 19 -13 30 0 30 6 0 10 -10 10 -22z
m-435 -78 c3 -5 1 -10 -4 -10 -6 0 -11 5 -11 10 0 6 2 10 4 10 3 0 8 -4 11
-10z m-15 -34 c0 -3 -4 -8 -10 -11 -5 -3 -10 -1 -10 4 0 6 5 11 10 11 6 0 10
-2 10 -4z m404 -104 c3 -5 -1 -9 -9 -9 -8 0 -12 4 -9 9 3 4 7 8 9 8 2 0 6 -4
9 -8z m4 -57 c-3 -3 -9 2 -12 12 -6 14 -5 15 5 6 7 -7 10 -15 7 -18z m-461
-77 c-3 -8 -6 -5 -6 6 -1 11 2 17 5 13 3 -3 4 -12 1 -19z m407 -13 c-4 -8 -8
-15 -10 -15 -2 0 -4 7 -4 15 0 8 4 15 10 15 5 0 7 -7 4 -15z m-49 -5 c3 -5 1
-10 -4 -10 -6 0 -11 5 -11 10 0 6 2 10 4 10 3 0 8 -4 11 -10z m25 -14 c0 -2
-8 -10 -17 -17 -16 -13 -17 -12 -4 4 13 16 21 21 21 13z"/>
<path d="M2460 1955 c-393 -79 -671 -419 -687 -840 -13 -317 157 -566 429
-630 81 -19 257 -19 348 0 93 20 199 69 283 133 l68 52 -7 -65 c-11 -106 -12
-105 227 -105 l199 0 31 28 32 28 68 435 c38 239 85 539 105 666 36 226 37
233 19 253 -17 19 -30 20 -235 20 -170 0 -220 -3 -229 -13 -6 -8 -15 -38 -21
-67 -6 -30 -12 -56 -15 -58 -3 -3 -24 17 -47 43 -28 32 -64 58 -105 77 -117
53 -320 72 -463 43z m397 -411 c101 -49 157 -142 157 -264 1 -237 -182 -421
-420 -422 -131 -1 -227 45 -284 137 -48 77 -46 232 4 340 51 112 179 214 295
235 77 14 189 2 248 -26z"/>
<path d="M8080 1963 c-8 -1 -36 -5 -63 -8 -26 -3 -45 -10 -42 -15 3 -4 -3 -6
-13 -4 -25 7 -184 -55 -175 -68 3 -7 1 -8 -5 -4 -15 9 -55 -18 -44 -29 4 -5 1
-5 -6 -1 -14 8 -45 -12 -37 -24 3 -4 -3 -7 -13 -6 -9 0 -16 -5 -14 -12 1 -8
-2 -10 -8 -7 -14 9 -52 -24 -43 -38 3 -5 1 -7 -5 -4 -20 13 -170 -173 -156
-195 4 -7 3 -8 -5 -4 -14 9 -75 -120 -66 -141 2 -8 1 -12 -4 -9 -4 3 -19 -34
-32 -82 -20 -73 -24 -109 -24 -227 1 -125 4 -148 27 -217 33 -95 50 -129 101
-196 40 -53 145 -138 156 -126 3 3 -3 13 -14 21 -12 9 -14 14 -5 11 8 -2 19
-14 25 -26 12 -27 108 -66 137 -56 15 4 18 3 13 -6 -6 -9 3 -11 34 -7 22 2 41
0 41 -4 0 -5 41 -9 91 -9 49 0 88 4 85 8 -2 4 11 6 29 4 19 -2 64 6 100 18
l66 22 -20 19 c-30 29 -26 34 8 10 25 -18 33 -19 55 -10 14 7 23 16 19 22 -3
6 -1 7 5 3 13 -8 46 11 110 62 32 25 40 37 31 43 -8 4 -10 11 -6 15 3 4 14 1
22 -6 16 -13 15 -55 -1 -112 -3 -10 5 -28 20 -43 25 -25 26 -25 211 -25 109 0
184 4 181 9 -4 5 2 7 12 4 24 -6 58 33 71 82 15 53 14 88 -1 79 -7 -4 -8 -3
-4 5 4 6 11 9 15 7 4 -3 13 27 19 67 8 55 8 73 -1 79 -9 6 -8 8 2 8 8 0 11 7
8 20 -3 11 -2 20 3 20 4 0 10 19 13 43 5 42 19 129 58 365 12 68 18 130 15
138 -3 7 -1 14 4 14 6 0 10 12 10 28 0 15 13 104 30 197 16 94 30 184 30 202
0 61 -9 63 -241 63 -196 0 -210 -1 -229 -20 -25 -25 -25 -35 0 -53 18 -13 19
-15 5 -21 -9 -3 -13 -2 -10 3 3 5 1 12 -4 15 -5 4 -12 -12 -16 -34 -8 -46 -16
-50 -39 -15 -23 35 -58 65 -68 59 -5 -3 -7 0 -6 7 5 24 -158 81 -239 85 -39 2
-75 4 -80 5 -4 1 -15 1 -23 0 -13 -1 -13 -2 0 -11 8 -5 10 -10 4 -10 -6 0 -17
7 -24 15 -11 13 -15 13 -21 3 -5 -7 -9 -8 -9 -3 0 10 -17 13 -50 8z m22 -35
c-7 -7 -12 -8 -12 -2 0 14 12 26 19 19 2 -3 -1 -11 -7 -17z m138 10 c0 -14
-15 -16 -27 -3 -10 11 -9 13 7 12 11 -1 20 -5 20 -9z m74 1 c3 -3 -4 -5 -17
-4 -12 1 -28 -2 -34 -8 -9 -7 -13 -5 -13 5 0 14 51 20 64 7z m-414 -33 c0 -3
-4 -8 -10 -11 -5 -3 -10 -1 -10 4 0 6 5 11 10 11 6 0 10 -2 10 -4z m26 -11
c-3 -20 -26 -44 -26 -27 0 7 4 12 10 12 5 0 7 7 4 15 -4 8 -2 15 4 15 6 0 9
-7 8 -15z m763 12 c-2 -1 -13 -9 -24 -17 -19 -14 -19 -14 -6 3 7 9 18 17 24
17 6 0 8 -1 6 -3z m-260 -25 c7 -13 6 -19 -2 -19 -7 0 -13 9 -13 19 0 10 1 18
3 18 1 0 7 -8 12 -18z m-601 -6 c-7 -8 -15 -12 -17 -11 -5 6 10 25 20 25 5 0
4 -6 -3 -14z m660 -3 c2 -7 -1 -13 -8 -13 -6 0 -8 5 -4 12 5 8 2 9 -9 5 -9 -3
-19 -2 -21 2 -3 5 4 8 16 7 12 0 23 -7 26 -13z m630 -41 c6 -18 -15 -14 -22 4
-4 10 -1 14 6 12 6 -2 14 -10 16 -16z m-1318 4 c0 -3 -4 -8 -10 -11 -5 -3 -10
-1 -10 4 0 6 5 11 10 11 6 0 10 -2 10 -4z m-44 -34 c1 -7 0 -8 -3 -2 -2 5 -9
10 -14 10 -6 0 -7 -5 -3 -12 4 -7 3 -8 -4 -4 -7 4 -12 12 -12 17 0 15 33 7 36
-9z m1354 -23 c0 -11 -4 -18 -9 -14 -6 3 -9 14 -8 25 2 24 17 15 17 -11z
m-430 5 c0 -2 -7 -4 -15 -4 -8 0 -15 4 -15 10 0 5 7 7 15 4 8 -4 15 -8 15 -10z
m-31 -34 c-6 -5 -18 -6 -26 -3 -19 8 -16 11 13 11 17 0 22 -3 13 -8z m-585
-188 c-16 -24 -16 -25 2 -17 70 29 109 37 186 39 47 0 84 -2 81 -6 -2 -5 3 -8
12 -8 9 0 29 -7 45 -15 22 -11 29 -12 33 -2 3 8 10 6 23 -7 15 -16 16 -17 2
-7 -32 24 -19 1 25 -42 49 -49 72 -78 72 -92 1 -5 7 -36 14 -68 11 -49 10 -70
-2 -132 -9 -41 -27 -97 -40 -124 -14 -27 -22 -52 -19 -56 4 -4 3 -6 -3 -4 -5
1 -36 -23 -67 -53 -31 -30 -70 -61 -87 -68 -17 -7 -28 -17 -24 -23 3 -6 1 -7
-5 -3 -6 4 -37 -1 -69 -10 -109 -32 -210 -17 -308 45 -22 14 -47 24 -55 23 -9
-2 -11 0 -4 5 7 5 3 18 -12 40 -12 18 -25 29 -29 25 -5 -4 -6 -2 -2 3 3 6 -1
35 -9 65 -17 61 -12 144 11 211 8 23 12 46 8 52 -3 5 -2 7 3 4 6 -3 16 7 23
23 7 16 32 51 56 78 25 27 41 53 37 56 -4 4 -2 7 3 6 18 -4 30 0 55 20 14 11
18 19 10 18 -8 -2 -19 -7 -23 -13 -5 -6 -7 -4 -5 5 3 8 15 17 29 20 13 4 24
13 23 22 -1 8 5 15 12 15 11 0 11 -5 -2 -25z m1003 6 c-3 -8 -6 -5 -6 6 -1 11
2 17 5 13 3 -3 4 -12 1 -19z m-537 -58 c0 -5 -2 -10 -4 -10 -3 0 -8 5 -11 10
-3 6 -1 10 4 10 6 0 11 -4 11 -10z m527 -10 c1 -11 -3 -20 -8 -20 -6 0 -7 -5
-3 -12 4 -6 3 -8 -4 -5 -11 8 -11 25 1 45 11 16 12 15 14 -8z m-507 -10 c0 -5
-5 -10 -11 -10 -5 0 -7 5 -4 10 3 6 8 10 11 10 2 0 4 -4 4 -10z m-1105 -20 c3
-5 1 -10 -4 -10 -6 0 -11 5 -11 10 0 6 2 10 4 10 3 0 8 -4 11 -10z m1588 -45
c-7 -21 -12 -19 -10 4 0 11 5 18 9 15 4 -3 5 -11 1 -19z m-453 -55 c0 -5 -2
-10 -4 -10 -3 0 -8 5 -11 10 -3 6 -1 10 4 10 6 0 11 -4 11 -10z m-1199 -23
c-10 -9 -11 -8 -5 6 3 10 9 15 12 12 3 -3 0 -11 -7 -18z m459 19 c0 -2 -7 -7
-16 -10 -8 -3 -12 -2 -9 4 6 10 25 14 25 6z m780 -26 c0 -5 -2 -10 -4 -10 -3
0 -8 5 -11 10 -3 6 -1 10 4 10 6 0 11 -4 11 -10z m-16 -95 c-9 -14 -17 -25
-18 -25 0 0 -2 12 -3 27 0 16 2 21 7 13 5 -7 10 -8 14 -2 3 5 -1 15 -9 22 -8
7 -12 17 -9 22 3 5 13 0 20 -11 13 -18 13 -24 -2 -46z m-789 45 c3 -5 1 -10
-4 -10 -6 0 -11 5 -11 10 0 6 2 10 4 10 3 0 8 -4 11 -10z m798 -77 c-7 -2 -13
-12 -13 -21 0 -15 -2 -15 -10 -2 -9 15 4 30 25 29 6 0 4 -3 -2 -6z m363 -141
c-3 -2 -1 -13 5 -23 7 -13 6 -25 -1 -37 -10 -15 -11 -14 -7 6 3 13 -1 25 -10
31 -11 6 -12 10 -4 16 9 5 9 11 -1 23 -12 15 -11 16 5 3 9 -8 15 -16 13 -19z
m-1162 -48 c3 -8 2 -12 -4 -9 -6 3 -10 10 -10 16 0 14 7 11 14 -7z m735 -37
c0 -9 -2 -8 -6 1 -2 6 -10 9 -15 6 -7 -4 -8 -2 -4 5 9 13 26 5 25 -12z m-39 3
c0 -5 -2 -10 -4 -10 -3 0 -8 5 -11 10 -3 6 -1 10 4 10 6 0 11 -4 11 -10z
m-1133 -77 c-4 -3 0 -17 9 -30 l15 -24 -26 17 c-20 13 -23 19 -14 30 6 8 14
14 17 14 3 0 2 -3 -1 -7z m93 -187 c0 -3 -4 -8 -10 -11 -5 -3 -10 -1 -10 4 0
6 5 11 10 11 6 0 10 -2 10 -4z m20 -20 c0 -2 -7 -7 -16 -10 -8 -3 -12 -2 -9 4
6 10 25 14 25 6z m20 -42 c0 -2 -7 -4 -15 -4 -8 0 -15 4 -15 10 0 5 7 7 15 4
8 -4 15 -8 15 -10z m1386 -39 c-9 -9 -16 -13 -16 -8 0 12 22 34 28 28 2 -2 -3
-11 -12 -20z m-1336 -9 c0 -3 -4 -8 -10 -11 -5 -3 -10 -1 -10 4 0 6 5 11 10
11 6 0 10 -2 10 -4z m740 -26 c0 -5 -2 -10 -4 -10 -3 0 -8 5 -11 10 -3 6 -1
10 4 10 6 0 11 -4 11 -10z m603 -4 c4 -10 1 -13 -8 -9 -8 3 -12 9 -9 14 7 12
11 11 17 -5z m-423 -40 c0 -12 -5 -7 -19 24 -11 24 -11 24 3 6 9 -11 16 -24
16 -30z m-766 15 c4 -5 -3 -7 -14 -4 -23 6 -26 13 -6 13 8 0 17 -4 20 -9z
m1163 -6 c0 -8 -4 -12 -9 -9 -5 3 -6 10 -3 15 9 13 12 11 12 -6z m-1212 -23
c-3 -3 -11 0 -18 7 -9 10 -8 11 6 5 10 -3 15 -9 12 -12z m39 0 c3 -5 -1 -9 -9
-9 -8 0 -12 4 -9 9 3 4 7 8 9 8 2 0 6 -4 9 -8z m30 -8 c3 -8 2 -12 -4 -9 -6 3
-10 10 -10 16 0 14 7 11 14 -7z m441 6 c3 -5 1 -10 -4 -10 -6 0 -11 5 -11 10
0 6 2 10 4 10 3 0 8 -4 11 -10z m674 7 c-2 -1 -13 -9 -24 -17 -19 -14 -19 -14
-6 3 7 9 18 17 24 17 6 0 8 -1 6 -3z m-959 -31 c0 -2 -7 -7 -16 -10 -8 -3 -12
-2 -9 4 6 10 25 14 25 6z m200 -6 c0 -5 -4 -10 -10 -10 -5 0 -10 5 -10 10 0 6
5 10 10 10 6 0 10 -4 10 -10z"/>
<path d="M3796 1914 c-21 -20 -20 -46 3 -114 60 -175 329 -962 359 -1051 l36
-106 -159 -224 c-239 -337 -237 -335 -237 -365 0 -50 16 -54 255 -54 l219 0
37 38 c20 21 105 138 189 260 158 231 249 362 763 1102 214 309 308 453 309
472 0 56 -11 58 -255 58 -198 0 -225 -2 -243 -17 -19 -17 -86 -113 -370 -537
-144 -213 -163 -239 -173 -229 -5 5 -57 172 -118 373 -92 309 -113 368 -135
387 -26 22 -32 23 -246 23 -185 0 -221 -2 -234 -16z"/>
</g>
</svg>
