<?xml version="1.0" standalone="no"?>
<!DOCTYPE svg PUBLIC "-//W3C//DTD SVG 20010904//EN"
 "http://www.w3.org/TR/2001/REC-SVG-20010904/DTD/svg10.dtd">
<svg version="1.0" xmlns="http://www.w3.org/2000/svg"
 width="3840.000000pt" height="2160.000000pt" viewBox="0 0 3840.000000 2160.000000"
 preserveAspectRatio="xMidYMid meet">

<g transform="translate(0.000000,2160.000000) scale(0.100000,-0.100000)"
fill="#000000" stroke="none">
<path d="M24720 16909 c-1510 -77 -2802 -571 -3654 -1399 -418 -406 -713 -865
-888 -1380 -124 -364 -180 -713 -181 -1120 0 -234 15 -380 59 -580 185 -830
787 -1544 1835 -2175 214 -130 405 -232 794 -428 712 -358 1049 -574 1281
-821 240 -254 324 -543 245 -847 -89 -346 -398 -628 -861 -787 -339 -116 -676
-160 -1140 -148 -1098 28 -1756 197 -2928 751 -67 32 -124 56 -126 54 -2 -2
-96 -582 -210 -1289 -114 -707 -209 -1299 -212 -1316 l-6 -31 155 -61 c734
-294 1798 -499 2862 -551 387 -20 981 0 1375 44 2404 273 3990 1547 4259 3420
45 314 52 713 17 965 -125 895 -639 1621 -1596 2256 -254 168 -510 312 -924
520 -828 416 -1177 627 -1424 859 -244 230 -338 468 -286 723 34 164 111 298
251 433 216 208 513 340 915 408 341 58 879 64 1303 15 549 -63 1040 -200
1600 -449 127 -56 211 -89 213 -82 1 7 92 566 202 1242 110 677 203 1242 206
1257 5 25 1 28 -74 57 -897 346 -2011 513 -3062 460z"/>
<path d="M11231 16688 c-5 -13 -673 -1812 -1486 -3998 -812 -2186 -1480 -3979
-1484 -3983 -4 -4 -81 357 -170 803 l-162 810 -69 174 c-742 1875 -2087 3437
-3933 4570 -87 53 -164 99 -172 102 -11 4 -7 -21 15 -103 120 -447 2680
-10094 2680 -10098 0 -3 725 -4 1612 -3 l1612 3 2383 5850 c1311 3218 2386
5860 2389 5873 l6 22 -1606 0 -1606 0 -9 -22z"/>
<path d="M15685 16698 c-2 -7 -430 -2643 -950 -5858 -520 -3215 -947 -5855
-950 -5868 l-5 -22 1522 0 1523 0 948 5863 c522 3224 949 5869 950 5877 2 13
-174 15 -1516 18 -1209 2 -1518 0 -1522 -10z"/>
<path d="M33105 16699 c-642 -41 -1064 -304 -1319 -822 -33 -68 -4527 -10774
-4577 -10905 l-9 -22 1597 2 1597 3 316 875 317 875 1957 3 c1076 1 1956 0
1956 -2 0 -2 18 -90 41 -197 51 -248 319 -1551 319 -1556 0 -1 635 -3 1411 -3
1339 0 1410 1 1405 18 -3 9 -269 1279 -591 2822 -322 1543 -872 4180 -1223
5860 l-638 3055 -1220 1 c-670 1 -1273 -3 -1339 -7z m524 -3674 c55 -264 229
-1103 385 -1865 157 -762 316 -1533 354 -1715 l68 -330 -1259 -3 c-693 -1
-1262 0 -1265 2 -2 3 53 159 123 348 1022 2766 1174 3179 1401 3823 89 251 85
243 90 230 1 -5 48 -226 103 -490z"/>
</g>
</svg>
